<mxfile host="app.diagrams.net" agent="Mozilla/5.0 (Windows NT 10.0; Win64; x64) AppleWebKit/537.36 (KHTML, like Gecko) Chrome/129.0.0.0 Safari/537.36 Edg/129.0.0.0" version="24.7.14">
  <diagram id="C5RBs43oDa-KdzZeNtuy" name="Page-1">
    <mxGraphModel dx="2216" dy="708" grid="1" gridSize="10" guides="1" tooltips="1" connect="1" arrows="1" fold="1" page="1" pageScale="1" pageWidth="827" pageHeight="1169" math="0" shadow="0">
      <root>
        <mxCell id="WIyWlLk6GJQsqaUBKTNV-0" />
        <mxCell id="WIyWlLk6GJQsqaUBKTNV-1" parent="WIyWlLk6GJQsqaUBKTNV-0" />
        <mxCell id="_KDIkI1znPW7qM3sfd9y-0" value="" style="strokeWidth=2;html=1;shape=mxgraph.flowchart.start_2;whiteSpace=wrap;fillColor=#f5f5f5;strokeColor=#666666;fontColor=#333333;" vertex="1" parent="WIyWlLk6GJQsqaUBKTNV-1">
          <mxGeometry x="240" y="120" width="20" height="20" as="geometry" />
        </mxCell>
        <mxCell id="_KDIkI1znPW7qM3sfd9y-1" value="" style="endArrow=classic;html=1;rounded=0;" edge="1" parent="WIyWlLk6GJQsqaUBKTNV-1">
          <mxGeometry width="50" height="50" relative="1" as="geometry">
            <mxPoint x="260" y="128.6" as="sourcePoint" />
            <mxPoint x="330" y="130" as="targetPoint" />
          </mxGeometry>
        </mxCell>
        <mxCell id="_KDIkI1znPW7qM3sfd9y-2" value="Event Manager logs into the system." style="rounded=0;whiteSpace=wrap;html=1;" vertex="1" parent="WIyWlLk6GJQsqaUBKTNV-1">
          <mxGeometry x="330" y="100" width="120" height="60" as="geometry" />
        </mxCell>
        <mxCell id="_KDIkI1znPW7qM3sfd9y-3" value="" style="endArrow=classic;html=1;rounded=0;" edge="1" parent="WIyWlLk6GJQsqaUBKTNV-1">
          <mxGeometry width="50" height="50" relative="1" as="geometry">
            <mxPoint x="389.5" y="160" as="sourcePoint" />
            <mxPoint x="390" y="210" as="targetPoint" />
            <Array as="points">
              <mxPoint x="390" y="200" />
            </Array>
          </mxGeometry>
        </mxCell>
        <mxCell id="_KDIkI1znPW7qM3sfd9y-4" value="Manage Nominees" style="rounded=0;whiteSpace=wrap;html=1;" vertex="1" parent="WIyWlLk6GJQsqaUBKTNV-1">
          <mxGeometry x="330" y="210" width="120" height="60" as="geometry" />
        </mxCell>
        <mxCell id="_KDIkI1znPW7qM3sfd9y-5" value="" style="endArrow=classic;html=1;rounded=0;" edge="1" parent="WIyWlLk6GJQsqaUBKTNV-1">
          <mxGeometry width="50" height="50" relative="1" as="geometry">
            <mxPoint x="389.5" y="270" as="sourcePoint" />
            <mxPoint x="390" y="320" as="targetPoint" />
            <Array as="points">
              <mxPoint x="390" y="310" />
            </Array>
          </mxGeometry>
        </mxCell>
        <mxCell id="_KDIkI1znPW7qM3sfd9y-6" value="" style="strokeWidth=2;html=1;shape=mxgraph.flowchart.decision;whiteSpace=wrap;" vertex="1" parent="WIyWlLk6GJQsqaUBKTNV-1">
          <mxGeometry x="335" y="320" width="110" height="100" as="geometry" />
        </mxCell>
        <mxCell id="_KDIkI1znPW7qM3sfd9y-35" value="" style="edgeStyle=orthogonalEdgeStyle;rounded=0;orthogonalLoop=1;jettySize=auto;html=1;" edge="1" parent="WIyWlLk6GJQsqaUBKTNV-1" source="_KDIkI1znPW7qM3sfd9y-8" target="_KDIkI1znPW7qM3sfd9y-34">
          <mxGeometry relative="1" as="geometry" />
        </mxCell>
        <mxCell id="_KDIkI1znPW7qM3sfd9y-8" value="Edit/Delete nominee" style="rounded=0;whiteSpace=wrap;html=1;" vertex="1" parent="WIyWlLk6GJQsqaUBKTNV-1">
          <mxGeometry x="560" y="410" width="120" height="60" as="geometry" />
        </mxCell>
        <mxCell id="_KDIkI1znPW7qM3sfd9y-21" value="" style="edgeStyle=orthogonalEdgeStyle;rounded=0;orthogonalLoop=1;jettySize=auto;html=1;" edge="1" parent="WIyWlLk6GJQsqaUBKTNV-1" source="_KDIkI1znPW7qM3sfd9y-9" target="_KDIkI1znPW7qM3sfd9y-20">
          <mxGeometry relative="1" as="geometry" />
        </mxCell>
        <mxCell id="_KDIkI1znPW7qM3sfd9y-9" value="Add nominee" style="rounded=0;whiteSpace=wrap;html=1;" vertex="1" parent="WIyWlLk6GJQsqaUBKTNV-1">
          <mxGeometry x="55" y="400" width="130" height="60" as="geometry" />
        </mxCell>
        <mxCell id="_KDIkI1znPW7qM3sfd9y-13" value="" style="endArrow=classic;html=1;rounded=0;entryX=0.554;entryY=-0.027;entryDx=0;entryDy=0;entryPerimeter=0;exitX=1;exitY=0.5;exitDx=0;exitDy=0;exitPerimeter=0;" edge="1" parent="WIyWlLk6GJQsqaUBKTNV-1" source="_KDIkI1znPW7qM3sfd9y-6" target="_KDIkI1znPW7qM3sfd9y-8">
          <mxGeometry width="50" height="50" relative="1" as="geometry">
            <mxPoint x="595" y="395" as="sourcePoint" />
            <mxPoint x="645" y="345" as="targetPoint" />
            <Array as="points">
              <mxPoint x="626" y="370" />
            </Array>
          </mxGeometry>
        </mxCell>
        <mxCell id="_KDIkI1znPW7qM3sfd9y-14" value="" style="endArrow=classic;html=1;rounded=0;entryX=0.5;entryY=0;entryDx=0;entryDy=0;exitX=0;exitY=0.5;exitDx=0;exitDy=0;exitPerimeter=0;" edge="1" parent="WIyWlLk6GJQsqaUBKTNV-1" source="_KDIkI1znPW7qM3sfd9y-6" target="_KDIkI1znPW7qM3sfd9y-9">
          <mxGeometry width="50" height="50" relative="1" as="geometry">
            <mxPoint x="330" y="370" as="sourcePoint" />
            <mxPoint x="170" y="320" as="targetPoint" />
            <Array as="points">
              <mxPoint x="120" y="370" />
            </Array>
          </mxGeometry>
        </mxCell>
        <mxCell id="_KDIkI1znPW7qM3sfd9y-19" value="&lt;span style=&quot;font-size: 16px;&quot;&gt;if you click add&amp;nbsp;&lt;/span&gt;" style="text;html=1;align=center;verticalAlign=middle;resizable=0;points=[];autosize=1;strokeColor=none;fillColor=none;" vertex="1" parent="WIyWlLk6GJQsqaUBKTNV-1">
          <mxGeometry x="185" y="340" width="130" height="30" as="geometry" />
        </mxCell>
        <mxCell id="_KDIkI1znPW7qM3sfd9y-23" value="" style="edgeStyle=orthogonalEdgeStyle;rounded=0;orthogonalLoop=1;jettySize=auto;html=1;" edge="1" parent="WIyWlLk6GJQsqaUBKTNV-1" source="_KDIkI1znPW7qM3sfd9y-20" target="_KDIkI1znPW7qM3sfd9y-22">
          <mxGeometry relative="1" as="geometry" />
        </mxCell>
        <mxCell id="_KDIkI1znPW7qM3sfd9y-20" value="Click &quot;Add Nominee&quot;" style="rounded=0;whiteSpace=wrap;html=1;" vertex="1" parent="WIyWlLk6GJQsqaUBKTNV-1">
          <mxGeometry x="55" y="520" width="130" height="60" as="geometry" />
        </mxCell>
        <mxCell id="_KDIkI1znPW7qM3sfd9y-25" value="" style="edgeStyle=orthogonalEdgeStyle;rounded=0;orthogonalLoop=1;jettySize=auto;html=1;" edge="1" parent="WIyWlLk6GJQsqaUBKTNV-1" source="_KDIkI1znPW7qM3sfd9y-22" target="_KDIkI1znPW7qM3sfd9y-24">
          <mxGeometry relative="1" as="geometry" />
        </mxCell>
        <mxCell id="_KDIkI1znPW7qM3sfd9y-22" value="System prompt to enter nominee details" style="rounded=0;whiteSpace=wrap;html=1;" vertex="1" parent="WIyWlLk6GJQsqaUBKTNV-1">
          <mxGeometry x="55" y="640" width="130" height="60" as="geometry" />
        </mxCell>
        <mxCell id="_KDIkI1znPW7qM3sfd9y-24" value="" style="strokeWidth=2;html=1;shape=mxgraph.flowchart.decision;whiteSpace=wrap;" vertex="1" parent="WIyWlLk6GJQsqaUBKTNV-1">
          <mxGeometry x="51.24999999999999" y="760" width="133.75" height="110" as="geometry" />
        </mxCell>
        <mxCell id="_KDIkI1znPW7qM3sfd9y-26" value="Missing fields error" style="rounded=0;whiteSpace=wrap;html=1;" vertex="1" parent="WIyWlLk6GJQsqaUBKTNV-1">
          <mxGeometry x="230" y="880" width="120" height="60" as="geometry" />
        </mxCell>
        <mxCell id="_KDIkI1znPW7qM3sfd9y-27" value="Successfully added Nominee&amp;nbsp;" style="rounded=0;whiteSpace=wrap;html=1;" vertex="1" parent="WIyWlLk6GJQsqaUBKTNV-1">
          <mxGeometry x="-120" y="880" width="120" height="60" as="geometry" />
        </mxCell>
        <mxCell id="_KDIkI1znPW7qM3sfd9y-28" value="" style="endArrow=classic;html=1;rounded=0;exitX=0;exitY=0.5;exitDx=0;exitDy=0;exitPerimeter=0;entryX=0.409;entryY=-0.027;entryDx=0;entryDy=0;entryPerimeter=0;" edge="1" parent="WIyWlLk6GJQsqaUBKTNV-1" source="_KDIkI1znPW7qM3sfd9y-24" target="_KDIkI1znPW7qM3sfd9y-27">
          <mxGeometry width="50" height="50" relative="1" as="geometry">
            <mxPoint x="106.25" y="808" as="sourcePoint" />
            <mxPoint x="-70" y="870" as="targetPoint" />
            <Array as="points">
              <mxPoint x="-70" y="815" />
            </Array>
          </mxGeometry>
        </mxCell>
        <mxCell id="_KDIkI1znPW7qM3sfd9y-29" value="" style="endArrow=classic;html=1;rounded=0;entryX=0.75;entryY=0;entryDx=0;entryDy=0;exitX=1;exitY=0.5;exitDx=0;exitDy=0;exitPerimeter=0;" edge="1" parent="WIyWlLk6GJQsqaUBKTNV-1" source="_KDIkI1znPW7qM3sfd9y-24" target="_KDIkI1znPW7qM3sfd9y-26">
          <mxGeometry width="50" height="50" relative="1" as="geometry">
            <mxPoint x="350" y="830" as="sourcePoint" />
            <mxPoint x="400" y="780" as="targetPoint" />
            <Array as="points">
              <mxPoint x="320" y="815" />
            </Array>
          </mxGeometry>
        </mxCell>
        <mxCell id="_KDIkI1znPW7qM3sfd9y-37" value="" style="edgeStyle=orthogonalEdgeStyle;rounded=0;orthogonalLoop=1;jettySize=auto;html=1;" edge="1" parent="WIyWlLk6GJQsqaUBKTNV-1" source="_KDIkI1znPW7qM3sfd9y-34" target="_KDIkI1znPW7qM3sfd9y-36">
          <mxGeometry relative="1" as="geometry" />
        </mxCell>
        <mxCell id="_KDIkI1znPW7qM3sfd9y-34" value="Select nominee" style="rounded=0;whiteSpace=wrap;html=1;" vertex="1" parent="WIyWlLk6GJQsqaUBKTNV-1">
          <mxGeometry x="560" y="520" width="120" height="60" as="geometry" />
        </mxCell>
        <mxCell id="_KDIkI1znPW7qM3sfd9y-36" value="" style="rhombus;whiteSpace=wrap;html=1;" vertex="1" parent="WIyWlLk6GJQsqaUBKTNV-1">
          <mxGeometry x="565" y="620" width="110" height="90" as="geometry" />
        </mxCell>
        <mxCell id="_KDIkI1znPW7qM3sfd9y-38" value="Edit Nominee Details" style="rounded=0;whiteSpace=wrap;html=1;" vertex="1" parent="WIyWlLk6GJQsqaUBKTNV-1">
          <mxGeometry x="430" y="760" width="150" height="54" as="geometry" />
        </mxCell>
        <mxCell id="_KDIkI1znPW7qM3sfd9y-39" value="Delete Nominee Details" style="rounded=0;whiteSpace=wrap;html=1;" vertex="1" parent="WIyWlLk6GJQsqaUBKTNV-1">
          <mxGeometry x="660" y="756" width="140" height="54" as="geometry" />
        </mxCell>
        <mxCell id="_KDIkI1znPW7qM3sfd9y-41" value="" style="endArrow=classic;html=1;rounded=0;entryX=0.25;entryY=0;entryDx=0;entryDy=0;exitX=0;exitY=0.5;exitDx=0;exitDy=0;" edge="1" parent="WIyWlLk6GJQsqaUBKTNV-1" source="_KDIkI1znPW7qM3sfd9y-36" target="_KDIkI1znPW7qM3sfd9y-38">
          <mxGeometry width="50" height="50" relative="1" as="geometry">
            <mxPoint x="560" y="670" as="sourcePoint" />
            <mxPoint x="400" y="650" as="targetPoint" />
            <Array as="points">
              <mxPoint x="468" y="665" />
            </Array>
          </mxGeometry>
        </mxCell>
        <mxCell id="_KDIkI1znPW7qM3sfd9y-42" value="" style="endArrow=classic;html=1;rounded=0;entryX=0.75;entryY=0;entryDx=0;entryDy=0;exitX=1;exitY=0.5;exitDx=0;exitDy=0;" edge="1" parent="WIyWlLk6GJQsqaUBKTNV-1" source="_KDIkI1znPW7qM3sfd9y-36" target="_KDIkI1znPW7qM3sfd9y-39">
          <mxGeometry width="50" height="50" relative="1" as="geometry">
            <mxPoint x="680" y="670" as="sourcePoint" />
            <mxPoint x="770" y="650" as="targetPoint" />
            <Array as="points">
              <mxPoint x="765" y="665" />
            </Array>
          </mxGeometry>
        </mxCell>
        <mxCell id="_KDIkI1znPW7qM3sfd9y-44" value="if you click Edit" style="text;html=1;align=center;verticalAlign=middle;resizable=0;points=[];autosize=1;strokeColor=none;fillColor=none;" vertex="1" parent="WIyWlLk6GJQsqaUBKTNV-1">
          <mxGeometry x="465" y="640" width="100" height="30" as="geometry" />
        </mxCell>
        <mxCell id="_KDIkI1znPW7qM3sfd9y-45" value="If you click delete" style="text;html=1;align=center;verticalAlign=middle;resizable=0;points=[];autosize=1;strokeColor=none;fillColor=none;" vertex="1" parent="WIyWlLk6GJQsqaUBKTNV-1">
          <mxGeometry x="670" y="638" width="120" height="30" as="geometry" />
        </mxCell>
        <mxCell id="_KDIkI1znPW7qM3sfd9y-48" value="Confirm action?" style="strokeWidth=2;html=1;shape=mxgraph.flowchart.decision;whiteSpace=wrap;" vertex="1" parent="WIyWlLk6GJQsqaUBKTNV-1">
          <mxGeometry x="550" y="910" width="130" height="110" as="geometry" />
        </mxCell>
        <mxCell id="_KDIkI1znPW7qM3sfd9y-49" style="edgeStyle=orthogonalEdgeStyle;rounded=0;orthogonalLoop=1;jettySize=auto;html=1;entryX=0;entryY=0.5;entryDx=0;entryDy=0;entryPerimeter=0;" edge="1" parent="WIyWlLk6GJQsqaUBKTNV-1" source="_KDIkI1znPW7qM3sfd9y-38" target="_KDIkI1znPW7qM3sfd9y-48">
          <mxGeometry relative="1" as="geometry" />
        </mxCell>
        <mxCell id="_KDIkI1znPW7qM3sfd9y-50" style="edgeStyle=orthogonalEdgeStyle;rounded=0;orthogonalLoop=1;jettySize=auto;html=1;entryX=1;entryY=0.5;entryDx=0;entryDy=0;entryPerimeter=0;" edge="1" parent="WIyWlLk6GJQsqaUBKTNV-1" source="_KDIkI1znPW7qM3sfd9y-39" target="_KDIkI1znPW7qM3sfd9y-48">
          <mxGeometry relative="1" as="geometry" />
        </mxCell>
        <mxCell id="_KDIkI1znPW7qM3sfd9y-51" value="&lt;p style=&quot;line-height: 90%;&quot;&gt;&lt;br&gt;&lt;/p&gt;" style="text;html=1;align=center;verticalAlign=middle;resizable=0;points=[];autosize=1;strokeColor=none;fillColor=none;" vertex="1" parent="WIyWlLk6GJQsqaUBKTNV-1">
          <mxGeometry x="530" y="318" width="20" height="50" as="geometry" />
        </mxCell>
        <mxCell id="_KDIkI1znPW7qM3sfd9y-53" value="&lt;font style=&quot;font-size: 14px;&quot;&gt;if you click Edit or delete&lt;/font&gt;" style="text;html=1;align=center;verticalAlign=middle;resizable=0;points=[];autosize=1;strokeColor=none;fillColor=none;" vertex="1" parent="WIyWlLk6GJQsqaUBKTNV-1">
          <mxGeometry x="445" y="338" width="170" height="30" as="geometry" />
        </mxCell>
        <mxCell id="_KDIkI1znPW7qM3sfd9y-55" value="If all required field Entered" style="text;html=1;align=center;verticalAlign=middle;resizable=0;points=[];autosize=1;strokeColor=none;fillColor=none;" vertex="1" parent="WIyWlLk6GJQsqaUBKTNV-1">
          <mxGeometry x="-105" y="784" width="160" height="30" as="geometry" />
        </mxCell>
        <mxCell id="_KDIkI1znPW7qM3sfd9y-56" value="If all required field not Entered" style="text;html=1;align=center;verticalAlign=middle;resizable=0;points=[];autosize=1;strokeColor=none;fillColor=none;" vertex="1" parent="WIyWlLk6GJQsqaUBKTNV-1">
          <mxGeometry x="185" y="784" width="180" height="30" as="geometry" />
        </mxCell>
        <mxCell id="_KDIkI1znPW7qM3sfd9y-60" value="" style="endArrow=classic;html=1;rounded=0;exitX=0.5;exitY=1;exitDx=0;exitDy=0;entryX=0;entryY=0.5;entryDx=0;entryDy=0;" edge="1" parent="WIyWlLk6GJQsqaUBKTNV-1" source="_KDIkI1znPW7qM3sfd9y-26" target="_KDIkI1znPW7qM3sfd9y-22">
          <mxGeometry width="50" height="50" relative="1" as="geometry">
            <mxPoint x="315" y="1010" as="sourcePoint" />
            <mxPoint x="-220" y="680" as="targetPoint" />
            <Array as="points">
              <mxPoint x="290" y="1050" />
              <mxPoint x="-220" y="1050" />
              <mxPoint x="-220" y="670" />
            </Array>
          </mxGeometry>
        </mxCell>
      </root>
    </mxGraphModel>
  </diagram>
</mxfile>
